<svg width="332" height="45" viewBox="0 0 332 45" fill="none" xmlns="http://www.w3.org/2000/svg">
<g clip-path="url(#clip0_1532_3644)">
<path d="M0 0C1.912 3.312 3.008 7.152 3.008 11.248C3.008 12.808 2.848 14.328 2.544 15.8C1.632 20.216 1.632 24.776 2.544 29.192C2.848 30.664 3.008 32.184 3.008 33.744C3.008 37.84 1.912 41.688 0 44.992H67.504L75 0H0Z" fill="#0066FF"/>
<path d="M93 34.2008V11.1768H96.696C99.2 11.1768 101.12 11.6968 102.456 12.7368C103.792 13.7768 104.456 15.2488 104.456 17.1608C104.456 18.2808 104.152 19.2808 103.552 20.1688C102.952 21.0568 102.184 21.6888 101.248 22.0808V22.1128C102.88 22.4408 104.152 23.0968 105.064 24.0808C105.984 25.0648 106.44 26.2808 106.44 27.7288C106.44 29.1768 106.112 30.2888 105.464 31.2568C104.816 32.2248 103.872 32.9528 102.64 33.4568C101.408 33.9528 99.944 34.2088 98.256 34.2088H93V34.2008ZM97.272 21.4088C98.288 21.4088 99.144 21.2328 99.84 20.8888C100.528 20.5448 101.048 20.0568 101.4 19.4248C101.744 18.7928 101.92 18.0728 101.92 17.2568C101.92 16.0328 101.528 15.1048 100.744 14.4648C99.96 13.8248 98.776 13.5048 97.184 13.5048H95.536V21.4168H97.28L97.272 21.4088ZM98.464 31.8168C100.256 31.8168 101.6 31.4328 102.496 30.6728C103.392 29.9128 103.84 28.8968 103.84 27.6328C103.84 26.3688 103.376 25.3768 102.448 24.6408C101.52 23.9048 100.04 23.5448 98.008 23.5448H95.536V31.8168H98.464Z" fill="black"/>
<path d="M122.191 34.2008H112.479V11.1768H115.015V31.8168H122.191V34.2008Z" fill="black"/>
<path d="M130.641 33.5928C129.409 32.9048 128.449 31.9048 127.753 30.6168C127.057 29.3208 126.713 27.8008 126.713 26.0488V11.1768H129.249V25.8008C129.249 27.2088 129.481 28.3928 129.937 29.3608C130.393 30.3288 131.049 31.0488 131.889 31.5128C132.737 31.9848 133.729 32.2168 134.865 32.2168C136.617 32.2168 137.993 31.6728 138.985 30.5848C139.985 29.4968 140.481 27.8728 140.481 25.7128V11.1768H142.985V26.0488C142.985 27.8008 142.641 29.3208 141.945 30.6168C141.249 31.9128 140.297 32.9048 139.073 33.5928C137.849 34.2808 136.449 34.6328 134.857 34.6328C133.265 34.6328 131.857 34.2888 130.625 33.5928H130.641Z" fill="black"/>
<path d="M161.552 34.2008H149.584V11.1768H161.552V13.5608H152.12V20.4328H161.248V22.8168H152.12V31.8248H161.552V34.2088V34.2008Z" fill="black"/>
<path d="M195.358 34.2011H192.582L189.862 27.6971H179.598L176.822 34.2011H174.102L184.854 9.95312H184.942L195.358 34.2011ZM180.638 25.3131H188.886L186.87 20.4891C186.398 19.3931 185.718 17.7371 184.822 15.5451C184.374 16.6651 183.662 18.3211 182.686 20.5211L180.638 25.3131Z" fill="black"/>
<path d="M203.127 33.056C201.327 32.008 199.903 30.576 198.855 28.752C197.807 26.928 197.279 24.928 197.279 22.752C197.279 20.576 197.807 18.536 198.863 16.704C199.919 14.872 201.367 13.424 203.199 12.352C205.031 11.28 207.063 10.752 209.303 10.752C210.503 10.752 211.647 10.928 212.735 11.272C213.823 11.616 214.847 12.096 215.807 12.704V15.696C214.871 14.88 213.831 14.248 212.695 13.8C211.551 13.352 210.375 13.128 209.151 13.128C207.423 13.128 205.839 13.552 204.415 14.392C202.991 15.24 201.863 16.392 201.039 17.856C200.215 19.32 199.799 20.944 199.799 22.712C199.799 24.48 200.215 26.064 201.039 27.52C201.863 28.976 202.991 30.128 204.415 30.968C205.839 31.816 207.415 32.232 209.151 32.232C210.471 32.232 211.647 32.032 212.663 31.624C213.679 31.216 214.727 30.536 215.807 29.576V32.632C214.831 33.264 213.783 33.752 212.663 34.096C211.543 34.44 210.359 34.616 209.119 34.616C206.919 34.616 204.919 34.096 203.119 33.04L203.127 33.056Z" fill="black"/>
<path d="M241.375 34.2011H238.599L235.879 27.6971H225.615L222.839 34.2011H220.119L230.871 9.95312H230.959L241.375 34.2011ZM226.655 25.3131H234.903L232.887 20.4891C232.415 19.3931 231.735 17.7371 230.839 15.5451C230.391 16.6651 229.679 18.3211 228.703 20.5211L226.655 25.3131Z" fill="black"/>
<path d="M246.018 34.2008V11.1768H249.986C252.634 11.1768 254.938 11.6248 256.906 12.5208C258.874 13.4168 260.386 14.7288 261.458 16.4568C262.53 18.1848 263.058 20.2568 263.058 22.6568C263.058 25.0568 262.522 27.1848 261.442 28.9208C260.362 30.6488 258.818 31.9608 256.818 32.8568C254.81 33.7528 252.458 34.2008 249.746 34.2008H246.018ZM249.93 31.8168C252.106 31.8168 253.994 31.4648 255.578 30.7608C257.162 30.0568 258.386 29.0168 259.242 27.6488C260.098 26.2728 260.522 24.6088 260.522 22.6568C260.522 20.7048 260.122 19.0728 259.314 17.7128C258.506 16.3528 257.33 15.3128 255.786 14.6168C254.242 13.9128 252.354 13.5608 250.138 13.5608H248.546V31.8248H249.922L249.93 31.8168Z" fill="black"/>
<path d="M280.863 34.2008H268.895V11.1768H280.863V13.5608H271.431V20.4328H280.559V22.8168H271.431V31.8248H280.863V34.2088V34.2008Z" fill="black"/>
<path d="M299.215 35.0566H299.151L292.191 17.6166L289.167 34.2006H286.543L291.279 9.76855H291.367L299.215 29.2806L307.311 9.76855H307.399L311.799 34.2006H309.175L306.367 17.6486L299.223 35.0566H299.215Z" fill="black"/>
<path d="M324.006 34.2008H321.502V24.0968L313.99 11.1768H316.894L322.758 21.4648L328.654 11.1768H331.558L324.014 24.0968V34.2008H324.006Z" fill="black"/>
</g>
<defs>
<clipPath id="clip0_1532_3644">
<rect width="331.552" height="45" fill="white"/>
</clipPath>
</defs>
</svg>
